<?xml version="1.0" standalone="no"?><!DOCTYPE svg PUBLIC "-//W3C//DTD SVG 1.1//EN" "http://www.w3.org/Graphics/SVG/1.1/DTD/svg11.dtd"><svg t="1594479046430" class="icon" viewBox="0 0 1024 1024" version="1.1" xmlns="http://www.w3.org/2000/svg" p-id="1544" xmlns:xlink="http://www.w3.org/1999/xlink" width="64" height="64"><defs><style type="text/css"></style></defs><path d="M931.046611 595.820611H91.21263c-15.44557 0-27.994391 12.523985-27.994391 27.940204 0 15.42525 12.54882 27.940204 27.994391 27.940204H931.046611c15.447828 0 27.994391-12.514953 27.994391-27.940204 0.002258-15.418477-12.546563-27.940204-27.994391-27.940204zM931.046611 484.059796H91.21263c-15.44557 0-27.994391 12.523985-27.994391 27.940204 0 15.42525 12.54882 27.940204 27.994391 27.940204H931.046611c15.447828 0 27.994391-12.514953 27.994391-27.940204 0.002258-15.416219-12.546563-27.940204-27.994391-27.940204zM91.21263 428.179389H931.046611c15.447828 0 27.994391-12.517211 27.994391-27.940204 0-15.416219-12.54882-27.940204-27.994391-27.940204H91.21263c-15.44557 0-27.994391 12.523985-27.994391 27.940204 0 15.422992 12.54882 27.940204 27.994391 27.940204z" fill="#040000" p-id="1545"></path></svg>